<?xml version="1.0" standalone="no"?>
<!DOCTYPE svg PUBLIC "-//W3C//DTD SVG 20010904//EN"
 "http://www.w3.org/TR/2001/REC-SVG-20010904/DTD/svg10.dtd">
<svg version="1.0" xmlns="http://www.w3.org/2000/svg"
 width="512.000000pt" height="512.000000pt" viewBox="0 0 512.000000 512.000000"
 preserveAspectRatio="xMidYMid meet">
<metadata>
Created by potrace 1.16, written by Peter Selinger 2001-2019
</metadata>
<g transform="translate(0.000000,512.000000) scale(0.100000,-0.100000)"
fill="#000000" stroke="none">
<path d="M2183 4116 c-95 -30 -178 -109 -214 -205 -29 -79 -24 -195 12 -269
l26 -52 -492 0 c-464 0 -493 -1 -508 -18 -15 -16 -17 -54 -17 -324 0 -364 -10
-338 128 -338 l92 0 0 -940 c0 -927 0 -940 20 -960 20 -20 33 -20 1330 -20
1297 0 1310 0 1330 20 20 20 20 33 20 960 l0 940 93 0 c78 0 97 3 110 18 15
16 17 54 17 324 0 283 -1 306 -18 321 -17 15 -67 17 -509 17 l-490 0 26 53
c23 45 26 65 26 147 0 112 -18 162 -85 234 -62 67 -134 99 -234 104 -100 5
-171 -19 -240 -79 l-46 -41 -46 41 c-84 74 -220 101 -331 67z m175 -152 c20
-8 50 -27 65 -42 51 -48 60 -77 65 -211 l5 -124 -126 5 c-118 5 -130 7 -174
34 -131 82 -122 260 17 332 52 26 96 28 148 6z m574 -14 c54 -37 81 -84 86
-148 5 -76 -26 -135 -91 -176 -44 -27 -56 -29 -174 -34 l-126 -5 5 126 c5 118
7 130 34 174 41 65 100 96 176 91 38 -3 67 -12 90 -28z m-632 -700 l0 -200
-580 0 -580 0 0 200 0 200 580 0 580 0 0 -200z m370 -955 l0 -1155 -110 0
-110 0 0 1155 0 1155 110 0 110 0 0 -1155z m1310 955 l0 -200 -580 0 -580 0 0
200 0 200 580 0 580 0 0 -200z m-1680 -1225 l0 -885 -470 0 -470 0 0 885 0
885 470 0 470 0 0 -885z m1460 0 l0 -885 -470 0 -470 0 0 885 0 885 470 0 470
0 0 -885z"/>
</g>
</svg>
